HIERARCHY
ROOT Hips
{
	OFFSET 0.00000 0.00000 0.00000
	CHANNELS 6 Xposition Yposition Zposition Zrotation Yrotation Xrotation 
	JOINT LHipJoint
	{
		OFFSET 0 0 0
		CHANNELS 3 Zrotation Yrotation Xrotation
		JOINT LeftUpLeg
		{
			OFFSET 1.76014 -1.80163 0.38499
			CHANNELS 3 Zrotation Yrotation Xrotation
			JOINT LeftLeg
			{
				OFFSET 2.46817 -6.78126 0.00000
				CHANNELS 3 Zrotation Yrotation Xrotation
				JOINT LeftFoot
				{
					OFFSET 2.79348 -7.67503 0.00000
					CHANNELS 3 Zrotation Yrotation Xrotation
					JOINT LeftToeBase
					{
						OFFSET 0.09421 -0.25885 1.91403
						CHANNELS 3 Zrotation Yrotation Xrotation
						End Site
						{
							OFFSET 0.00000 -0.00000 0.97975
						}
					}
				}
			}
		}
	}
	JOINT RHipJoint
	{
		OFFSET 0 0 0
		CHANNELS 3 Zrotation Yrotation Xrotation
		JOINT RightUpLeg
		{
			OFFSET -1.77926 -1.80163 0.38499
			CHANNELS 3 Zrotation Yrotation Xrotation
			JOINT RightLeg
			{
				OFFSET -2.51996 -6.92353 0.00000
				CHANNELS 3 Zrotation Yrotation Xrotation
				JOINT RightFoot
				{
					OFFSET -2.76109 -7.58603 0.00000
					CHANNELS 3 Zrotation Yrotation Xrotation
					JOINT RightToeBase
					{
						OFFSET -0.08067 -0.22163 1.86812
						CHANNELS 3 Zrotation Yrotation Xrotation
						End Site
						{
							OFFSET -0.00000 -0.00000 0.95558
						}
					}
				}
			}
		}
	}
	JOINT LowerBack
	{
		OFFSET 0 0 0
		CHANNELS 3 Zrotation Yrotation Xrotation
		JOINT Spine
		{
			OFFSET 0.05537 1.92033 -0.03713
			CHANNELS 3 Zrotation Yrotation Xrotation
			JOINT Spine1
			{
				OFFSET 0.04452 1.90073 0.10860
				CHANNELS 3 Zrotation Yrotation Xrotation
				JOINT Neck
				{
					OFFSET 0 0 0
					CHANNELS 3 Zrotation Yrotation Xrotation
					JOINT Neck1
					{
						OFFSET 0.00903 1.74649 0.02074
						CHANNELS 3 Zrotation Yrotation Xrotation
						JOINT Head
						{
							OFFSET -0.08608 1.67844 -0.12081
							CHANNELS 3 Zrotation Yrotation Xrotation
							End Site
							{
								OFFSET -0.03521 1.83380 -0.05059
							}
						}
					}
				}
				JOINT LeftShoulder
				{
					OFFSET 0 0 0
					CHANNELS 3 Zrotation Yrotation Xrotation
					JOINT LeftArm
					{
						OFFSET 3.28197 0.84325 -0.19106
						CHANNELS 3 Zrotation Yrotation Xrotation
						JOINT LeftForeArm
						{
							OFFSET 5.24318 -0.00000 -0.00000
							CHANNELS 3 Zrotation Yrotation Xrotation
							JOINT LeftHand
							{
								OFFSET 2.98999 -0.00000 0.00000
								CHANNELS 3 Zrotation Yrotation Xrotation
								JOINT LeftFingerBase
								{
									OFFSET 0 0 0
									CHANNELS 3 Zrotation Yrotation Xrotation
									JOINT LeftHandIndex1
									{
										OFFSET 0.72674 -0.00000 0.00000
										CHANNELS 3 Zrotation Yrotation Xrotation
										End Site
										{
											OFFSET 0.58592 -0.00000 0.00000
										}
									}
								}
								JOINT LThumb
								{
									OFFSET 0 0 0
									CHANNELS 3 Zrotation Yrotation Xrotation
									End Site
									{
										OFFSET 0.59487 -0.00000 0.59487
									}
								}
							}
						}
					}
				}
				JOINT RightShoulder
				{
					OFFSET 0 0 0
					CHANNELS 3 Zrotation Yrotation Xrotation
					JOINT RightArm
					{
						OFFSET -3.30963 0.78377 0.14264
						CHANNELS 3 Zrotation Yrotation Xrotation
						JOINT RightForeArm
						{
							OFFSET -5.37045 -0.00000 0.00000
							CHANNELS 3 Zrotation Yrotation Xrotation
							JOINT RightHand
							{
								OFFSET -2.92792 -0.00000 0.00000
								CHANNELS 3 Zrotation Yrotation Xrotation
								JOINT RightFingerBase
								{
									OFFSET 0 0 0
									CHANNELS 3 Zrotation Yrotation Xrotation
									JOINT RightHandIndex1
									{
										OFFSET -0.78450 -0.00000 0.00000
										CHANNELS 3 Zrotation Yrotation Xrotation
										End Site
										{
											OFFSET -0.63248 -0.00000 0.00000
										}
									}
								}
								JOINT RThumb
								{
									OFFSET 0 0 0
									CHANNELS 3 Zrotation Yrotation Xrotation
									End Site
									{
										OFFSET -0.64214 -0.00000 0.64214
									}
								}
							}
						}
					}
				}
			}
		}
	}
}
MOTION
Frames: 7
Frame Time: 0.019802
0.00 0.00 0.00 0 0 0 0 0 0 -21 0 0 0 0 0 0 0 0 0 0 0 0 0 0 21 0 0 0 0 0 0 0 0 0 0 0 0 0 0 0 0 0 0 0 0 0 0 -16 0 0 21 0 0 11 0 0 0 -8 0 0 0 0 0 0 0 0 0 0 0 0 0 0 0 0 0 0 0 0 8 0 0 0 0 0 0 0 0 0 0 0 0 0 0 0 0 0
0.00 0.00 0.00 3.3136 -7.5261 13.7931 0.0000 0.0000 0.0000 -23.6563 3.2218 -55.4947 10.8674 17.8696 62.3503 0.9115 -11.0054 -17.5877 0.0482 -1.4168 -3.8964 0.0000 0.0000 0.0000 9.9900 -3.2049 -60.2030 -10.7043 -17.7873 61.8174 0.2311 14.4536 -7.2174 -0.1277 2.3034 -6.3448 9.7297 -1.4031 24.9187 6.0062 0.0043 15.1831 1.0728 0.3127 3.2304 4.2638 0.7399 -0.2031 -17.9109 -2.0721 -21.1093 -6.5188 -0.0416 -6.4644 -0.0000 0.0000 0.0000 -39.5117 -40.4043 64.1453 38.7649 -47.3209 -17.5257 -0.0000 0.0000 -16.9879 -10.4753 20.8450 -3.7642 -7.1250 0.0000 -0.0000 -36.5861 47.2255 -2.3109 -0.0000 0.0000 0.0000 40.0416 24.4278 21.6106 -38.8422 47.3688 -17.5826 0.0000 -0.0000 -5.3194 0.7234 4.0572 0.0512 7.1250 -0.0000 -0.0000 20.3479 -25.7870 10.0838
0.00 0.00 0.00 1.2502 -16.4526 24.5215 0.0000 0.0000 0.0000 -26.2124 5.5656 -67.4498 9.6048 17.1815 58.1592 0.6033 -9.9134 -14.5098 0.0007 0.1739 0.4778 0.0000 0.0000 0.0000 7.3437 10.5472 -67.0201 -8.1022 -16.1939 52.9301 0.1391 8.5157 -2.6304 -0.2395 3.1497 -8.6958 8.8815 -0.9396 28.9621 2.4845 0.6924 14.8716 -2.4995 0.6348 1.0474 1.4598 1.8270 -0.1558 -15.5218 -0.0111 -19.1549 -5.2170 0.9442 -5.6672 -0.0000 0.0000 0.0000 -21.8560 -64.9728 53.8994 23.6517 -34.7937 -7.5069 -0.0000 -0.0000 10.7636 -16.8887 18.7610 -5.5771 -7.1250 0.0000 -0.0000 -40.4605 44.6476 0.4260 -0.0000 0.0000 0.0000 24.4376 58.1195 43.8881 -27.1160 38.2896 -9.5709 0.0000 0.0000 3.9558 24.2144 6.7716 3.0354 7.1250 -0.0000 -0.0000 34.6589 -21.8771 23.9647
0.00 0.00 0.00 -10.2865 -22.1327 37.8863 0.0000 0.0000 0.0000 -20.4312 11.5309 -83.2097 10.7176 17.7941 61.8610 0.5323 -11.1630 -14.1707 0.0618 1.6046 4.4140 0.0000 0.0000 0.0000 16.4296 19.8156 -71.7899 -5.6454 -14.0757 43.5414 0.2734 9.2809 4.5157 -0.0704 1.7116 -4.7094 3.5966 -1.4199 34.4602 1.8431 -0.9110 12.5913 0.3382 -0.5806 -3.6204 -2.3085 1.9814 -1.1127 -6.6109 1.2769 -21.2168 -1.7820 1.2337 -6.2220 -0.0000 -0.0000 0.0000 -8.2716 -64.2491 44.1138 19.8857 -30.5044 -5.4732 -0.0000 0.0000 -7.5002 -18.2040 20.2246 -6.4859 -7.1250 0.0000 -0.0000 -42.3585 45.6406 -0.8222 -0.0000 -0.0000 0.0000 42.8582 66.9048 60.4044 -74.7710 59.1053 -46.8509 0.0000 0.0000 6.9426 20.2877 9.4048 3.4569 7.1250 -0.0000 -0.0000 31.8535 -19.9900 22.8386
0.00 0.00 0.00 -11.7650 -22.1586 38.9048 0.0000 0.0000 0.0000 -20.3368 13.4670 -85.7706 11.3353 18.0953 63.8658 0.4313 -13.1563 -13.9488 0.1018 2.0577 5.6650 0.0000 0.0000 0.0000 17.7373 20.4726 -72.7087 -5.9184 -14.3488 44.6534 0.3061 9.8519 5.1121 -0.0030 0.3520 -0.9672 1.8422 -1.9061 36.2424 2.4318 -1.9137 11.9651 2.2754 -1.1355 -4.7573 -2.6835 1.2781 -2.0947 -4.9717 0.5509 -21.0947 -1.1471 0.7406 -6.0444 0.0000 0.0000 0.0000 -16.6969 -63.9253 48.3600 17.5798 -27.6157 -4.3527 -0.0000 0.0000 -8.2248 -17.8706 21.4991 -6.7391 -7.1250 0.0000 -0.0000 -42.9275 46.6970 -2.2038 0.0000 0.0000 0.0000 44.7035 61.7153 59.6785 -94.7369 59.9150 -64.1011 0.0000 0.0000 7.7823 14.7652 11.0019 2.8795 7.1250 -0.0000 -0.0000 28.3147 -18.9790 20.1833
0.00 0.00 0.00 -10.2672 -25.9500 33.5622 0.0000 0.0000 0.0000 -19.8714 14.6442 -78.1652 11.6868 18.2551 64.9926 1.1271 -8.9633 -19.0648 0.0134 -0.7480 -2.0558 0.0000 0.0000 0.0000 17.2961 19.1182 -68.5979 -6.8025 -15.1633 48.1232 0.5125 12.5673 4.9461 -0.0791 -1.8148 4.9940 3.1015 -3.7102 33.2632 1.4601 -4.0173 13.3683 1.1391 -2.0919 -2.3794 0.1836 -1.3371 -2.7709 -2.3286 -2.7413 -22.2156 -0.6315 -1.3731 -6.3209 -0.0000 -0.0000 0.0000 -35.6065 -57.4582 73.3221 23.8311 -34.9852 -7.6095 -0.0000 0.0000 -22.5174 -18.7551 21.2704 -7.0223 -7.1250 0.0000 -0.0000 -43.4555 46.3885 -1.8404 -0.0000 -0.0000 0.0000 51.6318 39.8675 43.7566 -103.0324 59.3484 -71.2617 0.0000 0.0000 5.2249 4.1558 14.7892 1.0626 7.1250 -0.0000 -0.0000 21.1615 -15.7329 15.7584
0.00 0.00 0.00 -6.5157 -26.2404 27.2524 0.0000 0.0000 0.0000 -22.2063 15.4100 -72.5333 11.7623 18.2884 65.2334 1.2052 -9.7730 -19.7768 0.0060 0.4998 1.3734 0.0000 0.0000 0.0000 14.3217 16.8171 -65.7699 -7.8947 -16.0413 52.1826 0.5421 13.1558 2.1801 -0.0656 -1.6525 4.5461 4.6627 -4.3950 29.6057 2.0163 -4.6291 13.7886 0.9125 -2.3225 -0.8043 1.6018 -3.0417 -2.5626 -1.4541 -5.0134 -23.0216 -0.4654 -2.6998 -6.6669 -0.0000 0.0000 0.0000 -43.4982 -53.7139 77.9726 26.2414 -37.4461 -9.0340 -0.0000 0.0000 -24.4676 -19.5746 20.5413 -7.1120 -7.1250 0.0000 -0.0000 -43.5973 45.6967 -0.9330 -0.0000 0.0000 0.0000 56.2789 33.2662 36.3072 -85.4908 59.9230 -56.0959 0.0000 -0.0000 -16.0093 4.4129 12.0333 0.9217 7.1250 -0.0000 -0.0000 21.6671 -18.3072 14.8661
